<svg id="Layer_1" data-name="Layer 1" xmlns="http://www.w3.org/2000/svg" viewBox="0 0 100.81 176.43"><defs><style>.cls-1{fill:#e9e8e8;}.cls-2{fill:none;}</style></defs><title>mastheadLogo1</title><path class="cls-1" d="M122.15,65.82c-3.76.2-7.85-1.48-12-2.84-5.39-1.77-10.85-2.71-16.51-1.64-4.34.81-7.5,3.08-8.06,7.71-.54,4.44,2.76,6.14,6.15,7.32,8.08,2.82,16.25,5.37,24.32,8.18S132,91.06,137.83,97.66c15.2,17.11,11.4,49.33-7.6,62.69-3.26,2.29-4.17,4.47-3.25,8.15a42.11,42.11,0,0,1,1,8.33A9.79,9.79,0,0,1,119,187.25a9.92,9.92,0,0,1-10.46-8.31c-1.65-8.89-1.64-8.74-10.72-8.3-3,.15-4,1.21-4,4a27.2,27.2,0,0,1-.88,6.21,9.76,9.76,0,0,1-10.21,7.29c-4.94-.47-9.85-4.69-8.7-9.31,2.27-9.06-2.19-11.7-9.65-13.23-3.93-.81-7.44-3-10.65-5.5-7.49-5.73-9.34-13.94-5.1-22.33,3.78-7.46,11.11-10.38,20.09-7.67,7.33,2.21,14.34,5.48,22.09,6.36a30.34,30.34,0,0,0,11.44-.56c4.22-1.15,7.12-3.63,7.76-8.19s-1.55-7.67-5.5-9.73c-7.34-3.83-15.46-5.44-23.18-8.21-2.3-.82-4.65-1.51-6.94-2.37-14.8-5.51-24.76-15.05-25.59-31.71-.87-17.41,5-31.67,20.73-40.5,3.79-2.14,5-4.29,3.88-8.17a7.13,7.13,0,0,1-.22-1C72,18,74.89,12.76,81,11.91c6.7-.92,11,3.11,11.61,11.51.25,3.62,1.38,5,5,4.44a9.2,9.2,0,0,1,3.14,0c4.61.9,6.36-.94,6.69-5.6.54-7.55,5-11.25,11.5-10.33,5.72.82,8.76,5.5,7.71,12.64-.73,4.94-.48,8.44,4.79,11.43,7.28,4.13,9.4,12.15,6.79,19.62C135.9,62.37,130.49,66,122.15,65.82Z" transform="translate(-46.4 -11.79)"/><path class="cls-2" d="M67.48,162.31C76.86,163.63,81,168.15,78,178c-1,3.27,1.58,5.66,5,6.1s5.68-1.56,6.39-4.84a49.21,49.21,0,0,0,1.15-8.8c.1-2.75,1.24-3.35,3.84-3.44a103.88,103.88,0,0,0,13.51-1.45c2.37-.39,3.11.36,3.35,2.5.37,3.47.74,6.95,1.4,10.37s3,5.18,6.44,4.69c3.69-.53,5.37-3.07,5.09-6.71-.25-3.3-.34-6.7-1.25-9.84-1.17-4,.11-6.56,3.52-8.45a20.45,20.45,0,0,0,8.47-7.62c1.33-2.17-2.68-3.6-2.24-6.19a9.59,9.59,0,0,0-.33-2.06c-.43-5.75-.94-11.5-1.21-17.26-.35-7.46-4-12.45-10.82-15.29-2.09-.88-4.23-1.66-6.36-2.43-4.85-1.75-6.12-5.47-5.29-10.07.77-4.27,4-6.56,8.63-8.35C108,86.38,100,82.63,90.25,81.1c3.73,3.34,4.2,6.68,4.06,10.3C94,100.22,85.92,101.28,79.8,105c2.54.93,4.31,1.66,6.12,2.24,7.14,2.28,14.56,3.87,21.1,7.72,8.51,5,9.53,14.76,2.46,21.6a12.28,12.28,0,0,0-2.38,2.68c-7.13,12.93-21.31,16.55-33.77,8.57a43,43,0,0,0-5.44-3.16c-5.83-2.61-9.15-.76-12.87,5.9-3.29,5.88,1.75,6.67,4.76,8.66A15.93,15.93,0,0,0,67.48,162.31Z" transform="translate(-46.4 -11.79)"/><path class="cls-1" d="M67.48,162.31c5.44-5.61,12.62-7.15,19.88-8.26,13.33-2,26.43-1.41,39,4.1-3.41,1.89-4.69,4.42-3.52,8.45.91,3.14,1,6.54,1.25,9.84.28,3.64-1.4,6.18-5.09,6.71-3.44.49-5.78-1.3-6.44-4.69s-1-6.9-1.4-10.37c-.24-2.14-1-2.89-3.35-2.5A103.88,103.88,0,0,1,94.28,167c-2.6.09-3.74.69-3.84,3.44a49.21,49.21,0,0,1-1.15,8.8c-.71,3.28-2.89,5.31-6.39,4.84s-6-2.83-5-6.1C81,168.15,76.86,163.63,67.48,162.31Z" transform="translate(-46.4 -11.79)"/><path class="cls-2" d="M59.36,49.68a30.12,30.12,0,0,1,8.79-9.07c1.58.8,1.86,2.5,2.73,3.77,3.45,5,8.5,6.16,13.58,2.71,4.18-2.84,8-6.26,12.14-9.11,7.79-5.3,12.13-3.56,14.18,5.54,1.3,5.78,2.56,11.55,6.34,17.37-6.85-1.76-12.79-4.18-19.32-3.84-6.87.35-12.64,1.91-15.66,9-1.47,3.44-5.11,3.77-7.58.74a79.16,79.16,0,0,1-5.91-9.2C66.43,54,64,50.6,59.36,49.68Z" transform="translate(-46.4 -11.79)"/></svg>