<svg id="Layer_2" data-name="Layer 2" xmlns="http://www.w3.org/2000/svg" viewBox="0 0 105.42 181.51"><defs><style>.cls-1{fill:#373449;stroke:#373449;stroke-width:4px;}.cls-1,.cls-4{stroke-miterlimit:10;}.cls-2{fill:#231f20;}.cls-3{fill:#e9e8e8;}.cls-4{fill:#f499c1;stroke:#f499c1;stroke-width:2px;}.cls-5{fill:#f1f2f2;}</style></defs><title>mastheadLogo2</title><path class="cls-1" d="M120,65.07c-3.78.2-7.89-1.49-12.06-2.86-5.43-1.78-10.92-2.73-16.61-1.65-4.37.82-7.55,3.1-8.12,7.76-.54,4.46,2.78,6.18,6.2,7.37,8.12,2.83,16.34,5.4,24.47,8.23s16,6.54,21.89,13.19c15.3,17.21,11.48,49.63-7.64,63.07-3.28,2.3-4.2,4.5-3.27,8.2a42,42,0,0,1,.95,8.38,9.83,9.83,0,0,1-9,10.48,10,10,0,0,1-10.52-8.35c-1.66-8.95-1.66-8.8-10.79-8.35-3,.14-4,1.21-4,4a27.72,27.72,0,0,1-.89,6.26,9.81,9.81,0,0,1-10.27,7.33c-5-.48-9.91-4.72-8.75-9.37,2.27-9.12-2.21-11.77-9.71-13.31-4-.81-7.49-3.05-10.72-5.53-7.54-5.77-9.4-14-5.13-22.47,3.8-7.51,11.18-10.44,20.21-7.72,7.38,2.23,14.43,5.52,22.22,6.4a30.36,30.36,0,0,0,11.52-.56c4.25-1.16,7.16-3.65,7.8-8.24s-1.55-7.72-5.52-9.79c-7.39-3.85-15.56-5.48-23.33-8.26-2.31-.83-4.68-1.53-7-2.38C57.07,101.39,47.06,91.8,46.22,75c-.87-17.51,5.05-31.86,20.86-40.74,3.81-2.15,5-4.32,3.9-8.21a7.4,7.4,0,0,1-.22-1c-1.22-8.1,1.7-13.35,7.89-14.2,6.74-.92,11.1,3.12,11.68,11.58.25,3.64,1.39,5.08,5,4.47a8.83,8.83,0,0,1,3.16,0c4.64.9,6.4-.95,6.73-5.64.55-7.59,5-11.32,11.58-10.39,5.75.82,8.81,5.53,7.75,12.72-.74,5-.48,8.49,4.82,11.5,7.32,4.15,9.45,12.22,6.83,19.73C133.84,61.6,128.4,65.21,120,65.07Z" transform="translate(-41.8 -8.7)"/><path class="cls-2" d="M65,162.15c9.43,1.33,13.6,5.87,10.53,15.81-1,3.29,1.59,5.69,5,6.14s5.71-1.58,6.43-4.87a49,49,0,0,0,1.15-8.86c.1-2.76,1.26-3.37,3.87-3.46a106.71,106.71,0,0,0,13.59-1.46c2.39-.4,3.14.36,3.37,2.52.38,3.49.75,7,1.42,10.43s3,5.21,6.47,4.71c3.72-.52,5.4-3.08,5.12-6.74-.25-3.32-.34-6.74-1.25-9.9-1.18-4.06.11-6.6,3.54-8.5a20.57,20.57,0,0,0,8.52-7.67c1.34-2.18-2.69-3.63-2.26-6.23a9.18,9.18,0,0,0-.33-2.07c-.43-5.79-.95-11.58-1.22-17.37-.35-7.51-4.06-12.52-10.88-15.38-2.11-.88-4.25-1.67-6.4-2.45-4.88-1.76-6.16-5.5-5.33-10.12.78-4.3,4-6.61,8.69-8.41-9.3-2.52-17.32-6.29-27.1-7.83,3.75,3.36,4.22,6.73,4.08,10.37-.34,8.87-8.44,9.93-14.6,13.71,2.55.94,4.33,1.67,6.16,2.25,7.18,2.3,14.65,3.9,21.22,7.77,8.57,5,9.6,14.86,2.49,21.73a12.22,12.22,0,0,0-2.4,2.7c-7.17,13-21.44,16.65-34,8.62a44.72,44.72,0,0,0-5.47-3.18c-5.87-2.62-9.21-.76-13,5.93-3.31,5.92,1.76,6.72,4.79,8.72A16,16,0,0,0,65,162.15Z" transform="translate(-41.8 -8.7)"/><path class="cls-2" d="M56.83,48.83c4.68.93,7.12,4.31,9.35,8a80.2,80.2,0,0,0,5.95,9.26c2.49,3,6.15,2.71,7.62-.75,3-7.14,8.85-8.71,15.76-9.07,6.57-.34,12.55,2.1,19.44,3.87-3.81-5.86-5.07-11.66-6.38-17.48-2.06-9.15-6.43-10.91-14.27-5.57-4.2,2.86-8,6.31-12.21,9.16C77,49.7,71.9,48.53,68.43,43.5c-.88-1.28-1.16-3-2.75-3.8A30.29,30.29,0,0,0,56.83,48.83Z" transform="translate(-41.8 -8.7)"/><path class="cls-3" d="M65,162.15a16,16,0,0,1-7.75-3.09c-3-2-8.1-2.8-4.79-8.72,3.74-6.69,7.08-8.55,13-5.93a44.72,44.72,0,0,1,5.47,3.18c12.54,8,26.81,4.39,34-8.62a12.22,12.22,0,0,1,2.4-2.7c7.11-6.87,6.08-16.68-2.49-21.73-6.57-3.87-14-5.47-21.22-7.77-1.83-.58-3.61-1.31-6.16-2.25,6.16-3.78,14.26-4.84,14.6-13.71.14-3.64-.33-7-4.08-10.37,9.78,1.54,17.8,5.31,27.1,7.83-4.7,1.8-7.91,4.11-8.69,8.41-.83,4.62.45,8.36,5.33,10.12,2.15.78,4.29,1.57,6.4,2.45,6.82,2.86,10.53,7.87,10.88,15.38.27,5.79.79,11.58,1.22,17.37a9.18,9.18,0,0,1,.33,2.07c-.43,2.6,3.6,4.05,2.26,6.23a20.57,20.57,0,0,1-8.52,7.67c-12.63-5.55-25.82-6.16-39.22-4.13C77.7,155,70.47,156.51,65,162.15Z" transform="translate(-41.8 -8.7)"/><path class="cls-4" d="M65,162.15c5.46-5.64,12.69-7.2,20-8.31,13.4-2,26.59-1.42,39.22,4.13-3.43,1.9-4.72,4.44-3.54,8.5.91,3.16,1,6.58,1.25,9.9.28,3.66-1.4,6.22-5.12,6.74-3.46.5-5.81-1.3-6.47-4.71s-1-6.94-1.42-10.43c-.23-2.16-1-2.92-3.37-2.52A106.71,106.71,0,0,1,92,166.91c-2.61.09-3.77.7-3.87,3.46A49,49,0,0,1,87,179.23c-.72,3.29-2.91,5.34-6.43,4.87s-6-2.85-5-6.14C78.61,168,74.44,163.48,65,162.15Z" transform="translate(-41.8 -8.7)"/><path class="cls-5" d="M56.83,48.83a30.29,30.29,0,0,1,8.85-9.13c1.59.81,1.87,2.52,2.75,3.8,3.47,5,8.55,6.2,13.66,2.72,4.21-2.85,8-6.3,12.21-9.16,7.84-5.34,12.21-3.58,14.27,5.57,1.31,5.82,2.57,11.62,6.38,17.48-6.89-1.77-12.87-4.21-19.44-3.87-6.91.36-12.71,1.93-15.76,9.07-1.47,3.46-5.13,3.79-7.62.75a80.2,80.2,0,0,1-5.95-9.26C64,53.14,61.51,49.76,56.83,48.83Z" transform="translate(-41.8 -8.7)"/></svg>